[Header]
FileType HTR
DataType HTRS
FileVersion 1
NumSegments 64
NumFrames 4
DataFrameRate 30
EulerRotationOrder ZYX
CalibrationUnits mm
RotationUnits Degrees
GlobalAxisofGravity Y
BoneLengthAxis Y
ScaleFactor 1.0
[SegmentNames&Hierarchy]
Hips	GLOBAL
Spine	Hips
Spine1	Spine
Spine2	Spine1
Neck	Spine2
Head	Neck
LeftEye	Head
RightEye	Head
LeftShoulder	Spine2
LeftArm	LeftShoulder
LeftForeArm	LeftArm
LeftHand	LeftForeArm
LeftHandThumb1	LeftHand
LeftHandThumb2	LeftHandThumb1
LeftHandThumb3	LeftHandThumb2
LeftHandThumb4	LeftHandThumb3
LeftHandIndex1	LeftHand
LeftHandIndex2	LeftHandIndex1
LeftHandIndex3	LeftHandIndex2
LeftHandIndex4	LeftHandIndex3
LeftHandMiddle1	LeftHand
LeftHandMiddle2	LeftHandMiddle1
LeftHandMiddle3	LeftHandMiddle2
LeftHandMiddle4	LeftHandMiddle3
LeftHandRing1	LeftHand
LeftHandRing2	LeftHandRing1
LeftHandRing3	LeftHandRing2
LeftHandRing4	LeftHandRing3
LeftHandPinky1	LeftHand
LeftHandPinky2	LeftHandPinky1
LeftHandPinky3	LeftHandPinky2
LeftHandPinky4	LeftHandPinky3
RightShoulder	Spine2
RightArm	RightShoulder
RightForeArm	RightArm
RightHand	RightForeArm
RightHandPinky1	RightHand
RightHandPinky2	RightHandPinky1
RightHandPinky3	RightHandPinky2
RightHandPinky4	RightHandPinky3
RightHandRing1	RightHand
RightHandRing2	RightHandRing1
RightHandRing3	RightHandRing2
RightHandRing4	RightHandRing3
RightHandMiddle1	RightHand
RightHandMiddle2	RightHandMiddle1
RightHandMiddle3	RightHandMiddle2
RightHandMiddle4	RightHandMiddle3
RightHandIndex1	RightHand
RightHandIndex2	RightHandIndex1
RightHandIndex3	RightHandIndex2
RightHandIndex4	RightHandIndex3
RightHandThumb1	RightHand
RightHandThumb2	RightHandThumb1
RightHandThumb3	RightHandThumb2
RightHandThumb4	RightHandThumb3
LeftUpLeg	Hips
LeftLeg	LeftUpLeg
LeftFoot	LeftLeg
LeftToeBase	LeftFoot
RightUpLeg	Hips
RightLeg	RightUpLeg
RightFoot	RightLeg
RightToeBase	RightFoot
[BasePosition]
Hips	0	0	0	0	0	0	1
Spine	0	0	0	0	0	0	1
Spine1	0	0	0	0	0	0	1
Spine2	0	0	0	0	0	0	1
Neck	0	0	0	0	0	0	1
Head	0	0	0	0	0	0	1
LeftEye	0	0	0	0	0	0	1
RightEye	0	0	0	0	0	0	1
LeftShoulder	0	0	0	0	0	0	1
LeftArm	0	0	0	0	0	0	1
LeftForeArm	0	0	0	0	0	0	1
LeftHand	0	0	0	0	0	0	1
LeftHandThumb1	0	0	0	0	0	0	1
LeftHandThumb2	0	0	0	0	0	0	1
LeftHandThumb3	0	0	0	0	0	0	1
LeftHandThumb4	0	0	0	0	0	0	1
LeftHandIndex1	0	0	0	0	0	0	1
LeftHandIndex2	0	0	0	0	0	0	1
LeftHandIndex3	0	0	0	0	0	0	1
LeftHandIndex4	0	0	0	0	0	0	1
LeftHandMiddle1	0	0	0	0	0	0	1
LeftHandMiddle2	0	0	0	0	0	0	1
LeftHandMiddle3	0	0	0	0	0	0	1
LeftHandMiddle4	0	0	0	0	0	0	1
LeftHandRing1	0	0	0	0	0	0	1
LeftHandRing2	0	0	0	0	0	0	1
LeftHandRing3	0	0	0	0	0	0	1
LeftHandRing4	0	0	0	0	0	0	1
LeftHandPinky1	0	0	0	0	0	0	1
LeftHandPinky2	0	0	0	0	0	0	1
LeftHandPinky3	0	0	0	0	0	0	1
LeftHandPinky4	0	0	0	0	0	0	1
RightShoulder	0	0	0	0	0	0	1
RightArm	0	0	0	0	0	0	1
RightForeArm	0	0	0	0	0	0	1
RightHand	0	0	0	0	0	0	1
RightHandPinky1	0	0	0	0	0	0	1
RightHandPinky2	0	0	0	0	0	0	1
RightHandPinky3	0	0	0	0	0	0	1
RightHandPinky4	0	0	0	0	0	0	1
RightHandRing1	0	0	0	0	0	0	1
RightHandRing2	0	0	0	0	0	0	1
RightHandRing3	0	0	0	0	0	0	1
RightHandRing4	0	0	0	0	0	0	1
RightHandMiddle1	0	0	0	0	0	0	1
RightHandMiddle2	0	0	0	0	0	0	1
RightHandMiddle3	0	0	0	0	0	0	1
RightHandMiddle4	0	0	0	0	0	0	1
RightHandIndex1	0	0	0	0	0	0	1
RightHandIndex2	0	0	0	0	0	0	1
RightHandIndex3	0	0	0	0	0	0	1
RightHandIndex4	0	0	0	0	0	0	1
RightHandThumb1	0	0	0	0	0	0	1
RightHandThumb2	0	0	0	0	0	0	1
RightHandThumb3	0	0	0	0	0	0	1
RightHandThumb4	0	0	0	0	0	0	1
LeftUpLeg	0	0	0	0	0	0	1
LeftLeg	0	0	0	0	0	0	1
LeftFoot	0	0	0	0	0	0	1
LeftToeBase	0	0	0	0	0	0	1
RightUpLeg	0	0	0	0	0	0	1
RightLeg	0	0	0	0	0	0	1
RightFoot	0	0	0	0	0	0	1
RightToeBase	0	0	0	0	0	0	1
[Hips]
140	112.9428253	908.604248	10.20695496	5.339196205	-10.91433048	1.987546444	1.0
141	89.58290863	930.4312134	19.52682877	5.000485897	-9.436414719	-0.7781136036	1.0
142	60.13019943	961.1176758	29.74748611	4.885376453	-7.073345184	-3.667433023	1.0
143	29.63932228	992.2755127	39.12255859	4.525134563	-3.583645344	-6.459344864	1.0
[Spine]
140	0	101.8159943	1.315000057	10.39931488	-3.489677191	-1.893792152	1.0
141	0	101.8159943	1.315000057	9.413427353	-3.68357563	-0.7314471602	1.0
142	0	101.8159943	1.315000057	7.918932438	-4.049015999	0.7113829255	1.0
143	0	101.8159943	1.315000057	6.585139275	-4.878612995	2.111340523	1.0
[Spine1]
140	0	100.8349991	-10.00800037	5.171618938	-0.3990596831	1.217620015	1.0
141	0	100.8349991	-10.00800037	5.252616405	-0.420176357	1.428955674	1.0
142	0	100.8349991	-10.00800037	5.068136215	-0.4647423327	1.622613311	1.0
143	0	100.8349991	-10.00800037	4.625335693	-0.5955423117	1.672811985	1.0
[Spine2]
140	0	91	-13.73399925	5.177074909	-0.2641060948	1.181315303	1.0
141	0	91	-13.73399925	5.260670662	-0.2737034857	1.386844158	1.0
142	0	91	-13.73399925	5.079583645	-0.3220326602	1.574888468	1.0
143	0	91	-13.73399925	4.639643192	-0.4767806232	1.620381355	1.0
[Neck]
140	0	166.7169952	-25.16200066	-6.518846035	2.087882519	-2.888316631	1.0
141	0	166.7169952	-25.16200066	-6.520439625	1.819930911	-2.397295475	1.0
142	0	166.7169952	-25.16200066	-6.483790398	1.50154984	-1.406470299	1.0
143	0	166.7169952	-25.16200066	-5.047199726	0.993445158	1.076180816	1.0
[Head]
140	0	96.17900085	16.84999847	-32.85919571	9.491128922	-2.79436326	1.0
141	0	96.17900085	16.84999847	-29.28173637	9.308627129	-1.222894669	1.0
142	0	96.17900085	16.84999847	-24.0136013	8.960701942	0.2881644666	1.0
143	0	96.17900085	16.84999847	-18.80285645	8.330340385	0.5779252052	1.0
[LeftEye]
140	30.6760006	64.09500122	92.83599854	0	0	0	1.0
141	30.6760006	64.09500122	92.83599854	0	0	0	1.0
142	30.6760006	64.09500122	92.83599854	0	0	0	1.0
143	30.6760006	64.09500122	92.83599854	0	0	0	1.0
[RightEye]
140	-30.6760006	64.09500122	92.83499908	0	0	0	1.0
141	-30.6760006	64.09500122	92.83499908	0	0	0	1.0
142	-30.6760006	64.09500122	92.83499908	0	0	0	1.0
143	-30.6760006	64.09500122	92.83499908	0	0	0	1.0
[LeftShoulder]
140	45.70400238	109.4599991	-26.28000069	3.983255386	-25.85733032	-5.607428074	1.0
141	45.70400238	109.4599991	-26.28000069	3.886284828	-26.18579483	-5.202223778	1.0
142	45.70400238	109.4599991	-26.28000069	3.679579735	-26.96960831	-4.278083324	1.0
143	45.70400238	109.4599991	-26.28000069	3.487980604	-29.01376534	-3.511616707	1.0
[LeftArm]
140	105.923996	-5.24600029	-22.32099915	-13.89601135	-40.87781906	4.865576267	1.0
141	105.923996	-5.24600029	-22.32099915	-12.43885422	-44.25565338	2.509728909	1.0
142	105.923996	-5.24600029	-22.32099915	-7.69511652	-47.43099213	-2.167191505	1.0
143	105.923996	-5.24600029	-22.32099915	-0.6223887801	-49.14291382	-7.574788094	1.0
[LeftForeArm]
140	278.414978	-0.0009999999311	0	4.882817279e-07	-111.5310516	-0.0001986084098	1.0
141	278.414978	-0.0009999999311	0	-5.709144615e-11	-110.837822	-0.0001983642142	1.0
142	278.414978	-0.0009999999311	0	-2.783197851e-05	-107.5854645	-0.0001854248403	1.0
143	278.414978	-0.0009999999311	0	-1.5877853e-05	-101.3740692	-0.0001741616725	1.0
[LeftHand]
140	283.2879944	0	0	1.190350175	-26.0897522	-6.406028748	1.0
141	283.2879944	0	0	5.441597939	-25.15866852	-6.632609844	1.0
142	283.2879944	0	0	7.887308121	-24.90242386	-2.950107098	1.0
143	283.2879944	0	0	7.134075642	-25.82749557	1.641380072	1.0
[LeftHandThumb1]
140	24.6609993	-15.75	26.8239994	-1.441464186	-8.319265366	8.65396595	1.0
141	24.6609993	-15.75	26.8239994	-1.441467047	-8.319279671	8.653968811	1.0
142	24.6609993	-15.75	26.8239994	-1.441468239	-8.319270134	8.653961182	1.0
143	24.6609993	-15.75	26.8239994	-1.441471457	-8.319262505	8.653961182	1.0
[LeftHandThumb2]
140	32.29800034	-18.64699936	18.64699936	-1.002966762	48.03796387	-30.11075592	1.0
141	32.29800034	-18.64699936	18.64699936	-0.9997666478	48.03665161	-30.10417938	1.0
142	32.29800034	-18.64699936	18.64699936	-0.9977064133	48.03577805	-30.09997177	1.0
143	32.29800034	-18.64699936	18.64699936	-0.9979476929	48.0358696	-30.10047722	1.0
[LeftHandThumb3]
140	26.52600098	-15.31499958	15.31499958	7.526418686	50.02882767	24.38988304	1.0
141	26.52600098	-15.31499958	15.31499958	7.523351192	50.02531052	24.3882122	1.0
142	26.52600098	-15.31499958	15.31499958	7.521788597	50.02291107	24.38748741	1.0
143	26.52600098	-15.31499958	15.31499958	7.521819592	50.02325821	24.38745117	1.0
[LeftHandThumb4]
140	19.54599953	-11.28499985	11.28499985	0	0	0	1.0
141	19.54599953	-11.28499985	11.28499985	0	0	0	1.0
142	19.54599953	-11.28499985	11.28499985	0	0	0	1.0
143	19.54599953	-11.28499985	11.28499985	0	0	0	1.0
[LeftHandIndex1]
140	91.09299469	-5.170999527	22.60099792	-1.707896113	9.272741318	-79.13228607	1.0
141	91.09299469	-5.170999527	22.60099792	-1.707180023	9.272322655	-79.12714386	1.0
142	91.09299469	-5.170999527	22.60099792	-1.706720829	9.272057533	-79.12382507	1.0
143	91.09299469	-5.170999527	22.60099792	-1.706781626	9.272092819	-79.12421417	1.0
[LeftHandIndex2]
140	36.76399994	0	0	-5.084247112	5.778055191	-82.67962646	1.0
141	36.76399994	0	0	-5.084242821	5.778053284	-82.67964935	1.0
142	36.76399994	0	0	-5.084242821	5.778053284	-82.67964172	1.0
143	36.76399994	0	0	-5.084240913	5.778051853	-82.67962646	1.0
[LeftHandIndex3]
140	28.83100128	0	0	-6.449678898	5.791754723	-96.16446686	1.0
141	28.83100128	0	0	-6.449678898	5.791763783	-96.164505	1.0
142	28.83100128	0	0	-6.449685097	5.791770935	-96.16449738	1.0
143	28.83100128	0	0	-6.449683666	5.791761398	-96.164505	1.0
[LeftHandIndex4]
140	23.92700005	0	0	0	0	0	1.0
141	23.92700005	0	0	0	0	0	1.0
142	23.92700005	0	0	0	0	0	1.0
143	23.92700005	0	0	0	0	0	1.0
[LeftHandMiddle1]
140	95.33399963	0	0	-6.494754791	5.27325964	-74.30394745	1.0
141	95.33399963	0	0	-6.494763851	5.273263931	-74.30395508	1.0
142	95.33399963	0	0	-6.494762421	5.273256779	-74.30393982	1.0
143	95.33399963	0	0	-6.494762897	5.273264885	-74.30393982	1.0
[LeftHandMiddle2]
140	36.98199844	0	0	-7.583501339	5.554391384	-107.596611	1.0
141	36.98199844	0	0	-7.583495617	5.554395676	-107.5965881	1.0
142	36.98199844	0	0	-7.583498478	5.554382324	-107.5965958	1.0
143	36.98199844	0	0	-7.583497047	5.554386616	-107.5966034	1.0
[LeftHandMiddle3]
140	29.50900078	0	0	-4.044784546	5.547349453	-72.1745224	1.0
141	29.50900078	0	0	-4.044266224	5.547187328	-72.16913605	1.0
142	29.50900078	0	0	-4.043935299	5.547077179	-72.16570282	1.0
143	29.50900078	0	0	-4.04397583	5.547084808	-72.16609192	1.0
[LeftHandMiddle4]
140	28.3390007	0	0	0	0	0	1.0
141	28.3390007	0	0	0	0	0	1.0
142	28.3390007	0	0	0	0	0	1.0
143	28.3390007	0	0	0	0	0	1.0
[LeftHandRing1]
140	91.04499817	-0.4390000105	-18.65100098	-7.093243599	2.508055449	-79.76338959	1.0
141	91.04499817	-0.4390000105	-18.65100098	-7.093500137	2.507982016	-79.76580811	1.0
142	91.04499817	-0.4390000105	-18.65100098	-7.093663216	2.507933617	-79.76735687	1.0
143	91.04499817	-0.4390000105	-18.65100098	-7.093644142	2.5079391	-79.76716614	1.0
[LeftHandRing2]
140	31.54000092	0	0	-6.249356747	5.809800625	-94.182724	1.0
141	31.54000092	0	0	-6.249210358	5.809813499	-94.18121338	1.0
142	31.54000092	0	0	-6.249116421	5.809826374	-94.1802597	1.0
143	31.54000092	0	0	-6.249129295	5.809823513	-94.18038177	1.0
[LeftHandRing3]
140	29.37700081	0	0	-2.899038076	5.039110184	-59.80281067	1.0
141	29.37700081	0	0	-2.898731709	5.038938046	-59.79932785	1.0
142	29.37700081	0	0	-2.898530006	5.03882885	-59.79708481	1.0
143	29.37700081	0	0	-2.898553848	5.038837433	-59.79734421	1.0
[LeftHandRing4]
140	26.47500038	0	0	0	0	0	1.0
141	26.47500038	0	0	0	0	0	1.0
142	26.47500038	0	0	0	0	0	1.0
143	26.47500038	0	0	0	0	0	1.0
[LeftHandPinky1]
140	80.77799988	-4.887000084	-38.06099701	-15.74255943	5.236906528	-84.95963287	1.0
141	80.77799988	-4.887000084	-38.06099701	-15.74275208	5.236485004	-84.96215057	1.0
142	80.77799988	-4.887000084	-38.06099701	-15.7428627	5.236207008	-84.96376801	1.0
143	80.77799988	-4.887000084	-38.06099701	-15.74285221	5.236236095	-84.96357727	1.0
[LeftHandPinky2]
140	36	0	0	-2.465595961	4.761518478	-54.73203659	1.0
141	36	0	0	-2.465538502	4.761485577	-54.73138428	1.0
142	36	0	0	-2.465516806	4.761461258	-54.73101807	1.0
143	36	0	0	-2.465521336	4.761463165	-54.73106384	1.0
[LeftHandPinky3]
140	21.14200211	0	0	-4.930364609	5.756304741	-81.14846802	1.0
141	21.14200211	0	0	-4.929845333	5.756215096	-81.14321899	1.0
142	21.14200211	0	0	-4.929507732	5.756172657	-81.13983917	1.0
143	21.14200211	0	0	-4.929543018	5.756175995	-81.14025879	1.0
[LeftHandPinky4]
140	19.75699997	0	0	0	0	0	1.0
141	19.75699997	0	0	0	0	0	1.0
142	19.75699997	0	0	0	0	0	1.0
143	19.75699997	0	0	0	0	0	1.0
[RightShoulder]
140	-45.70000076	109.4620056	-26.28000069	-30.00258064	10.8219614	-22.72756577	1.0
141	-45.70000076	109.4620056	-26.28000069	-28.05826569	10.53205967	-20.34173203	1.0
142	-45.70000076	109.4620056	-26.28000069	-25.34520531	9.449461937	-17.47434235	1.0
143	-45.70000076	109.4620056	-26.28000069	-21.4045887	7.698943615	-14.02090549	1.0
[RightArm]
140	-105.9280014	-5.248000145	-22.32099915	-85.72947693	-4.816858768	-4.941470146	1.0
141	-105.9280014	-5.248000145	-22.32099915	-88.47045135	-3.651508093	-4.316606045	1.0
142	-105.9280014	-5.248000145	-22.32099915	-81.18904877	-0.8822699785	-4.17544651	1.0
143	-105.9280014	-5.248000145	-22.32099915	-63.98400116	1.1080966	-7.957888126	1.0
[RightForeArm]
140	-278.414978	0	0	2.063095781e-05	116.0955048	2.219399539e-05	1.0
141	-278.414978	0	0	3.05174799e-05	105.8457108	4.577626896e-05	1.0
142	-278.414978	0	0	-2.946103814e-05	90.42711639	-2.524936644e-05	1.0
143	-278.414978	0	0	-2.325456626e-05	68.45789337	-2.652140938e-05	1.0
[RightHand]
140	-283.2879944	0	0.0009999999311	-29.55365944	-2.677143335	-47.29977036	1.0
141	-283.2879944	0	0.0009999999311	-26.9668808	-0.8786632419	-60.47801208	1.0
142	-283.2879944	0	0.0009999999311	-30.40098	-1.665130138	-64.20127106	1.0
143	-283.2879944	0	0.0009999999311	-43.92153931	-12.96134186	-61.93424988	1.0
[RightHandPinky1]
140	-80.76699829	-4.885000229	-38.06000137	-15.18224525	-1.629499435	97.5863266	1.0
141	-80.76699829	-4.885000229	-38.06000137	-15.18224812	-1.629517794	97.5863266	1.0
142	-80.76699829	-4.885000229	-38.06000137	-15.18224335	-1.629507899	97.58633423	1.0
143	-80.76699829	-4.885000229	-38.06000137	-15.18223572	-1.629508734	97.58631897	1.0
[RightHandPinky2]
140	-36	0	0.0009999999311	-1.749821663	-3.626889467	51.51878357	1.0
141	-36	0	0.0009999999311	-1.749816298	-3.626904011	51.51877975	1.0
142	-36	0	0.0009999999311	-1.749818563	-3.626904488	51.51877975	1.0
143	-36	0	0.0009999999311	-1.749816656	-3.626887083	51.51877594	1.0
[RightHandPinky3]
140	-21.14200211	0	0	-1.867234588	-3.717077732	53.33225632	1.0
141	-21.14200211	0	0	-1.867219448	-3.717077494	53.33224869	1.0
142	-21.14200211	0	0	-1.867229819	-3.717077017	53.3322525	1.0
143	-21.14200211	0	0	-1.867236614	-3.717078686	53.33223724	1.0
[RightHandPinky4]
140	-19.75699997	0	0	0	0	0	1.0
141	-19.75699997	0	0	0	0	0	1.0
142	-19.75699997	0	0	0	0	0	1.0
143	-19.75699997	0	0	0	0	0	1.0
[RightHandRing1]
140	-91.03599548	-0.4390000105	-18.65100098	-7.065045834	-0.7974048257	91.91007996	1.0
141	-91.03599548	-0.4390000105	-18.65100098	-7.065047264	-0.7974227667	91.91007233	1.0
142	-91.03599548	-0.4390000105	-18.65100098	-7.065032482	-0.7974196076	91.91007233	1.0
143	-91.03599548	-0.4390000105	-18.65100098	-7.06502676	-0.797411561	91.91007996	1.0
[RightHandRing2]
140	-31.54000092	0	0	-4.327750206	-4.620640278	86.24688721	1.0
141	-31.54000092	0	0	-4.327741146	-4.620634556	86.24688721	1.0
142	-31.54000092	0	0	-4.327739716	-4.620632648	86.24688721	1.0
143	-31.54000092	0	0	-4.327746391	-4.620633602	86.24687195	1.0
[RightHandRing3]
140	-29.37700081	0	0	-1.156964183	-3.063930988	41.36632919	1.0
141	-29.37700081	0	0	-1.156962395	-3.063936949	41.36634064	1.0
142	-29.37700081	0	0	-1.156970739	-3.063946724	41.36634445	1.0
143	-29.37700081	0	0	-1.156976819	-3.063934088	41.36633682	1.0
[RightHandRing4]
140	-26.47500038	0	0	0	0	0	1.0
141	-26.47500038	0	0	0	0	0	1.0
142	-26.47500038	0	0	0	0	0	1.0
143	-26.47500038	0	0	0	0	0	1.0
[RightHandMiddle1]
140	-95.32500458	0	0	-5.490194798	-4.098495483	73.57289124	1.0
141	-95.32500458	0	0	-5.490188599	-4.098519802	73.57287598	1.0
142	-95.32500458	0	0	-5.490179062	-4.098510742	73.57289124	1.0
143	-95.32500458	0	0	-5.490182877	-4.09850359	73.57289124	1.0
[RightHandMiddle2]
140	-36.98199844	0	0	-6.02657938	-4.415501118	107.5651245	1.0
141	-36.98199844	0	0	-6.026578426	-4.415495872	107.5651245	1.0
142	-36.98199844	0	0	-6.026585102	-4.415517807	107.5651093	1.0
143	-36.98199844	0	0	-6.02657938	-4.415513515	107.5651093	1.0
[RightHandMiddle3]
140	-29.50900078	0	0	-1.287469864	-3.207857847	43.75225067	1.0
141	-29.50900078	0	0	-1.287468553	-3.207862616	43.75226212	1.0
142	-29.50900078	0	0	-1.287470222	-3.207849264	43.75225067	1.0
143	-29.50900078	0	0	-1.287475348	-3.207851648	43.7522583	1.0
[RightHandMiddle4]
140	-28.3390007	0	0.0009999999311	0	0	0	1.0
141	-28.3390007	0	0.0009999999311	0	0	0	1.0
142	-28.3390007	0	0.0009999999311	0	0	0	1.0
143	-28.3390007	0	0.0009999999311	0	0	0	1.0
[RightHandIndex1]
140	-91.08300018	-5.167999744	22.60099792	2.64305234	-5.360731602	51.18568802	1.0
141	-91.08300018	-5.167999744	22.60099792	2.643061876	-5.360746384	51.18567657	1.0
142	-91.08300018	-5.167999744	22.60099792	2.643074989	-5.360732079	51.18568039	1.0
143	-91.08300018	-5.167999744	22.60099792	2.64307332	-5.360726357	51.1856842	1.0
[RightHandIndex2]
140	-36.76399994	0	0	-4.042244911	-4.593094349	82.69343567	1.0
141	-36.76399994	0	0	-4.042245388	-4.593091488	82.69343567	1.0
142	-36.76399994	0	0	-4.042260647	-4.593093395	82.69345093	1.0
143	-36.76399994	0	0	-4.042239189	-4.593096733	82.69342041	1.0
[RightHandIndex3]
140	-28.83100128	0	0	-5.126289368	-4.603962898	96.15283203	1.0
141	-28.83100128	0	0	-5.126290321	-4.603969574	96.1528244	1.0
142	-28.83100128	0	0	-5.126281261	-4.603982449	96.15283203	1.0
143	-28.83100128	0	0	-5.126288414	-4.603981018	96.15283966	1.0
[RightHandIndex4]
140	-23.92700005	0	0	0	0	0	1.0
141	-23.92700005	0	0	0	0	0	1.0
142	-23.92700005	0	0	0	0	0	1.0
143	-23.92700005	0	0	0	0	0	1.0
[RightHandThumb1]
140	-24.64799881	-15.72700024	26.82600021	-2.388245583	10.16858959	-8.287036896	1.0
141	-24.64799881	-15.72700024	26.82600021	-2.388231993	10.16859627	-8.287032127	1.0
142	-24.64799881	-15.72700024	26.82600021	-2.388239145	10.16858864	-8.287024498	1.0
143	-24.64799881	-15.72700024	26.82600021	-2.388243198	10.16859245	-8.287028313	1.0
[RightHandThumb2]
140	-32.29800034	-18.64699936	18.64699936	7.070494175	-37.46693802	0.6014007926	1.0
141	-32.29800034	-18.64699936	18.64699936	7.070501804	-37.46695709	0.6013701558	1.0
142	-32.29800034	-18.64699936	18.64699936	7.070501804	-37.46694565	0.6013777852	1.0
143	-32.29800034	-18.64699936	18.64699936	7.07049799	-37.46694946	0.6013920307	1.0
[RightHandThumb3]
140	-26.52600098	-15.31399918	15.31399918	3.291618347	-34.41185379	-26.10049629	1.0
141	-26.52600098	-15.31399918	15.31399918	3.291623354	-34.4118576	-26.10049248	1.0
142	-26.52600098	-15.31399918	15.31399918	3.291632414	-34.41185379	-26.10049629	1.0
143	-26.52600098	-15.31399918	15.31399918	3.291627169	-34.4118576	-26.10050011	1.0
[RightHandThumb4]
140	-19.54599953	-11.28499985	11.28499985	0	0	0	1.0
141	-19.54599953	-11.28499985	11.28499985	0	0	0	1.0
142	-19.54599953	-11.28499985	11.28499985	0	0	0	1.0
143	-19.54599953	-11.28499985	11.28499985	0	0	0	1.0
[LeftUpLeg]
140	82.07800293	-67.51699829	-15.99599934	-15.8642416	13.55024433	18.73146629	1.0
141	82.07800293	-67.51699829	-15.99599934	-12.20160866	14.75584793	23.01461601	1.0
142	82.07800293	-67.51699829	-15.99599934	-8.228070259	15.48302174	27.24134064	1.0
143	82.07800293	-67.51699829	-15.99599934	-10.03034019	15.31436253	28.52215004	1.0
[LeftLeg]
140	0	-443.7049866	2.845999956	42.76914978	6.827172756	6.278964996	1.0
141	0	-443.7049866	2.845999956	36.4730072	6.899258137	5.044251442	1.0
142	0	-443.7049866	2.845999956	26.43326759	8.541024208	4.406132221	1.0
143	0	-443.7049866	2.845999956	24.86458588	9.050278664	4.763986588	1.0
[LeftFoot]
140	0	-444.2789917	-29.8219986	-21.45795441	-3.240221739	-21.92212105	1.0
141	0	-444.2789917	-29.8219986	-15.77802277	-1.22843051	-18.81993294	1.0
142	0	-444.2789917	-29.8219986	-4.245825291	4.023617268	-13.25551033	1.0
143	0	-444.2789917	-29.8219986	8.345034599	7.200117588	-7.176263809	1.0
[LeftToeBase]
140	0	-87.28699493	107.1060028	-0.8851708174	-0.0006046969211	0.04397433996	1.0
141	0	-87.28699493	107.1060028	-5.395112991	4.340527539e-06	1.557956011e-06	1.0
142	0	-87.28699493	107.1060028	-10.76842308	0.07496275753	0.3676235974	1.0
143	0	-87.28699493	107.1060028	-14.72947311	-0.7896168232	-3.670874596	1.0
[RightUpLeg]
140	-82.07800293	-67.51699829	-15.99599934	-63.63576508	-7.345166206	-13.06815052	1.0
141	-82.07800293	-67.51699829	-15.99599934	-64.53501129	-12.66654015	-9.250183105	1.0
142	-82.07800293	-67.51699829	-15.99599934	-62.3358078	-17.06733704	-6.991218567	1.0
143	-82.07800293	-67.51699829	-15.99599934	-56.32472992	-18.80532074	-6.100486755	1.0
[RightLeg]
140	0	-443.7049866	2.861999989	93.03475189	1.344314933	-9.740659714	1.0
141	0	-443.7049866	2.861999989	98.05292511	2.556045055	-9.010230064	1.0
142	0	-443.7049866	2.861999989	98.68392944	2.675299883	-7.365550995	1.0
143	0	-443.7049866	2.861999989	92.57314301	1.983048081	-7.71045351	1.0
[RightFoot]
140	0	-444.2770081	-29.83799934	-4.376108646	-7.512625694	8.151314735	1.0
141	0	-444.2770081	-29.83799934	-7.699114799	-13.87808037	4.807289124	1.0
142	0	-444.2770081	-29.83799934	-8.368733406	-18.21943092	2.11798358	1.0
143	0	-444.2770081	-29.83799934	-7.456707001	-20.68849182	1.561652184	1.0
[RightToeBase]
140	0	-87.28699493	107.1060028	1.512269616	-7.755140359e-06	2.771997174e-07	1.0
141	0	-87.28699493	107.1060028	1.369049788	9.305608728e-06	4.269396868e-06	1.0
142	0	-87.28699493	107.1060028	1.060096264	1.409430843e-05	1.205890044e-06	1.0
143	0	-87.28699493	107.1060028	1.843963981	9.625300663e-06	1.979898798e-06	1.0
[EndOfFile]
